<?xml version="1.0" encoding="UTF-8" standalone="no"?>
<!-- Created with Inkscape (http://www.inkscape.org/) -->

<svg
   version="1.1"
   id="svg2"
   width="154.24001"
   height="154.24001"
   viewBox="0 0 154.24001 154.24001"
   sodipodi:docname="beets_monocle.svg"
   inkscape:version="1.1.2 (0a00cf5339, 2022-02-04)"
   xmlns:inkscape="http://www.inkscape.org/namespaces/inkscape"
   xmlns:sodipodi="http://sodipodi.sourceforge.net/DTD/sodipodi-0.dtd"
   xmlns="http://www.w3.org/2000/svg"
   xmlns:svg="http://www.w3.org/2000/svg">
  <defs
     id="defs6" />
  <sodipodi:namedview
     id="namedview4"
     pagecolor="#505050"
     bordercolor="#ffffff"
     borderopacity="1"
     inkscape:pageshadow="0"
     inkscape:pageopacity="0"
     inkscape:pagecheckerboard="1"
     showgrid="false"
     inkscape:zoom="1.9568424"
     inkscape:cx="-150.24204"
     inkscape:cy="84.830542"
     inkscape:window-width="2500"
     inkscape:window-height="1385"
     inkscape:window-x="60"
     inkscape:window-y="27"
     inkscape:window-maximized="1"
     inkscape:current-layer="g8" />
  <g
     inkscape:groupmode="layer"
     inkscape:label="Image"
     id="g8">
    <ellipse
       style="fill:none;fill-opacity:0.437014;stroke:#daa520;stroke-width:0.749998;stroke-linecap:round;stroke-linejoin:round;stroke-miterlimit:4;stroke-dasharray:none;stroke-opacity:1;paint-order:fill markers stroke"
       id="path9863-5-5"
       cx="128.08501"
       cy="68.353584"
       rx="1.2614691"
       ry="1.9667773" />
    <g
       id="g28409">
      <g
         id="g28807">
        <path
           style="fill:#aa2e2a;fill-opacity:1;stroke:none;stroke-width:2;stroke-linecap:butt;stroke-linejoin:bevel;stroke-miterlimit:4;stroke-dasharray:none;stroke-opacity:1;paint-order:normal"
           d="M 47.56578,4.226565 61.684356,46.96961 c 0,0 -39.602451,2.385694 -39.295454,2.385694 0.306997,0 41.691307,7.305265 41.691307,7.305265 0,0 -6.277915,-0.476146 -13.397373,8.926761 -7.119459,9.40292 -8.512057,14.74273 -8.255534,20.50885 0.256523,5.76612 4.283962,17.42387 8.577256,21.9781 4.293295,4.55422 11.935353,7.48899 18.607228,7.79696 6.671875,0.30797 13.245778,0.80433 23.563788,9.79515 10.318016,8.99082 22.153246,23.96465 22.153246,23.96465 3.21266,-13.36828 5.76656,-24.92846 5.08648,-38.39576 -0.2708,-5.36254 7.66301,-22.20879 8.92407,-33.25084 -0.3283,-11.36356 -7.40556,-25.729452 -17.34548,-32.225044 -16.03083,-10.47592 -33.660755,0.471619 -33.660755,0.471619 L 96.108168,14.947592 72.944751,35.000636 Z"
           id="path879-6"
           sodipodi:nodetypes="ccscssssscscscccc" />
        <path
           style="fill:#1f6900;fill-opacity:1;stroke:none;stroke-width:1px;stroke-linecap:butt;stroke-linejoin:miter;stroke-opacity:1"
           d="M 64.080214,56.660571 78.33314,46.231017 96.108173,14.947594 72.944756,35.000638 47.565785,4.2265672 61.684361,46.969612 22.639512,49.329105 Z"
           id="path11482" />
        <path
           style="fill:none;fill-opacity:0.437014;stroke:#000000;stroke-width:2;stroke-linecap:butt;stroke-linejoin:bevel;stroke-miterlimit:4;stroke-dasharray:none;stroke-opacity:1;paint-order:normal"
           d="M 47.565785,4.2265672 61.684361,46.969612 c 0,0 -39.602451,2.385694 -39.295454,2.385694 0.306997,0 41.691307,7.305265 41.691307,7.305265 0,0 -6.277915,-0.476146 -13.397373,8.926765 -7.119459,9.402911 -8.512057,14.742725 -8.255534,20.508845 0.256523,5.766121 4.283962,17.423869 8.577256,21.978099 4.293295,4.55422 11.935353,7.48899 18.607228,7.79696 6.671875,0.30797 13.245778,0.80433 23.563788,9.79515 10.318011,8.99082 22.153241,23.96465 22.153241,23.96465 3.21266,-13.36828 5.76656,-24.92846 5.08648,-38.39576 -0.2708,-5.36254 7.66302,-22.208786 8.92407,-33.25084 C 129.01108,66.620886 121.93382,52.25499 111.9939,45.759398 95.963065,35.283478 78.33314,46.231017 78.33314,46.231017 L 96.108173,14.947594 72.944756,35.000638 Z"
           id="path879"
           sodipodi:nodetypes="ccscssssscscscccc" />
      </g>
    </g>
    <ellipse
       style="fill:none;fill-opacity:0.437014;stroke:#daa520;stroke-width:0.749998;stroke-linecap:round;stroke-linejoin:round;stroke-miterlimit:4;stroke-dasharray:none;stroke-opacity:1;paint-order:fill markers stroke"
       id="path9863-2"
       cx="110.52592"
       cy="73.453911"
       rx="2.4920182"
       ry="1.1945547"
       transform="rotate(-4.8868267)" />
    <ellipse
       style="fill:none;fill-opacity:0.437014;stroke:#daa520;stroke-width:0.749998;stroke-linecap:round;stroke-linejoin:round;stroke-miterlimit:4;stroke-dasharray:none;stroke-opacity:1;paint-order:fill markers stroke"
       id="path9863"
       cx="114.94987"
       cy="73.473915"
       rx="2.4920182"
       ry="1.1945547"
       transform="rotate(-4.8868267)" />
    <rect
       style="mix-blend-mode:normal;fill:#ffdd78;fill-opacity:0.437014;stroke:#daa520;stroke-width:1.5;stroke-linecap:round;stroke-linejoin:round;stroke-miterlimit:4;stroke-dasharray:none;stroke-opacity:1;paint-order:fill markers stroke"
       id="rect3396-3"
       width="27.858732"
       height="27.858732"
       x="65.850639"
       y="73.657837"
       rx="13.929366"
       ry="13.929366"
       transform="rotate(-15)" />
    <ellipse
       style="fill:none;fill-opacity:0.437014;stroke:#daa520;stroke-width:0.749998;stroke-linecap:round;stroke-linejoin:round;stroke-miterlimit:4;stroke-dasharray:none;stroke-opacity:1;paint-order:fill markers stroke"
       id="path9863-5"
       cx="124.85144"
       cy="64.060211"
       rx="2.4920182"
       ry="1.1945547" />
    <ellipse
       style="fill:none;fill-opacity:0.437014;stroke:#daa520;stroke-width:0.749998;stroke-linecap:round;stroke-linejoin:round;stroke-miterlimit:4;stroke-dasharray:none;stroke-opacity:1;paint-order:fill markers stroke"
       id="path9863-5-3"
       cx="127.41391"
       cy="65.462868"
       rx="1.5475167"
       ry="1.1326349" />
  </g>
</svg>
