<?xml version="1.0" encoding="UTF-8" standalone="no"?>
<!DOCTYPE svg PUBLIC "-//W3C//DTD SVG 1.1//EN" "http://www.w3.org/Graphics/SVG/1.1/DTD/svg11.dtd">
<svg width="100%" height="100%" viewBox="0 0 24 24" version="1.1"
    xmlns="http://www.w3.org/2000/svg"
    xmlns:xlink="http://www.w3.org/1999/xlink" xml:space="preserve"
    xmlns:serif="http://www.serif.com/" style="fill-rule:evenodd;clip-rule:evenodd;stroke-linecap:round;stroke-linejoin:round;">
    <g transform="matrix(1,0,0,1,-1672.14,-2.6)">
        <g id="Artboard3" transform="matrix(0.0995851,0,0,0.0995851,1566.98,94.1187)">
            <rect x="1056" y="-919" width="241" height="241" style="fill:none;"/>
            <g transform="matrix(10.0417,0,0,10.0417,-15734.6,-949.125)">
                <g transform="matrix(1,0,0,1,-27.9809,-1176.16)">
                    <g transform="matrix(1,0,0,1,1700.35,1178.15)">
                        <path d="M18,15.28c0.2,-0.4 0.5,-0.8 0.9,-1c0.85,-0.491 1.937,-0.324 2.6,0.4c0.3,0.4 0.5,0.8 0.5,1.3c0,1.3 -2,2 -2,2" style="fill:none;fill-rule:nonzero;stroke:black;stroke-width:2px;"/>
                    </g>
                    <g transform="matrix(1,0,0,1,1700.35,1178.15)">
                        <path d="M20,22l0,0.01" style="fill:none;fill-rule:nonzero;stroke:black;stroke-width:2px;"/>
                    </g>
                </g>
                <g transform="matrix(0.65,0,0,1,1672.51,2)">
                    <path d="M23.538,12l-21.538,0" style="fill:none;fill-rule:nonzero;stroke:black;stroke-width:2px;"/>
                </g>
                <g transform="matrix(1,0,0,1,1671.81,2)">
                    <path d="M21.061,10.124l-2.511,-5.014c-0.337,-0.679 -1.032,-1.11 -1.79,-1.11l-9.52,0c-0.758,0 -1.453,0.431 -1.79,1.11l-3.45,6.89l-0,6c-0,1.097 0.903,2 2,2l12,0" style="fill:none;fill-rule:nonzero;stroke:black;stroke-width:2px;"/>
                </g>
                <g transform="matrix(1,0,0,1,1671.81,2)">
                    <path d="M6,16l0.01,0" style="fill:none;fill-rule:nonzero;stroke:black;stroke-width:2px;"/>
                </g>
                <g transform="matrix(1,0,0,1,1671.81,2)">
                    <path d="M10,16l0.01,0" style="fill:none;fill-rule:nonzero;stroke:black;stroke-width:2px;"/>
                </g>
            </g>
        </g>
    </g>
</svg>
