<?xml version="1.0" encoding="UTF-8" standalone="no"?>
<!DOCTYPE svg PUBLIC "-//W3C//DTD SVG 1.1//EN" "http://www.w3.org/Graphics/SVG/1.1/DTD/svg11.dtd">
<svg width="100%" height="100%" viewBox="0 0 24 24" version="1.1" xmlns="http://www.w3.org/2000/svg" xmlns:xlink="http://www.w3.org/1999/xlink" xml:space="preserve" xmlns:serif="http://www.serif.com/" style="fill-rule:evenodd;clip-rule:evenodd;stroke-linecap:round;stroke-linejoin:round;">
    <g transform="matrix(1,0,0,1,-1729,0)">
        <g id="Artboard4" transform="matrix(0.615385,0,0,0.615385,666.231,4.30769)">
            <rect x="1727" y="-7" width="39" height="39" style="fill:none;"/>
            <g transform="matrix(1,0,0,1,-8.10543,-10.4)">
                <g transform="matrix(1.625,0,0,1.625,-1028.54,-1911.11)">
                    <g transform="matrix(1,0,0,1,1700.35,1178.15)">
                        <path d="M18,15.28c0.2,-0.4 0.5,-0.8 0.9,-1c0.85,-0.491 1.937,-0.324 2.6,0.4c0.3,0.4 0.5,0.8 0.5,1.3c0,1.3 -2,2 -2,2" style="fill:none;fill-rule:nonzero;stroke:black;stroke-width:2px;"/>
                    </g>
                    <g transform="matrix(1,0,0,1,1700.35,1178.15)">
                        <path d="M20,22l0,0.01" style="fill:none;fill-rule:nonzero;stroke:black;stroke-width:2px;"/>
                    </g>
                </g>
                <g transform="matrix(1.625,0,0,1.625,1735.19,3.4)">
                    <path d="M15.534,21.357c-1.099,0.415 -2.29,0.643 -3.534,0.643c-5.519,0 -10,-4.481 -10,-10c0,-5.519 4.481,-10 10,-10c5.033,0 9.203,3.726 9.898,8.568" style="fill:none;stroke:black;stroke-width:2px;"/>
                </g>
                <g transform="matrix(1.625,0,0,1.625,1735.19,3.4)">
                    <path d="M12,2c-5.302,5.567 -5.302,14.433 0,20" style="fill:none;fill-rule:nonzero;stroke:black;stroke-width:2px;"/>
                </g>
                <g transform="matrix(1.625,0,0,1.625,1735.19,3.4)">
                    <path d="M15.879,10.308c-0.35,-3.026 -1.643,-5.96 -3.879,-8.308" style="fill:none;fill-rule:nonzero;stroke:black;stroke-width:2px;"/>
                </g>
                <g transform="matrix(1.625,0,0,1.625,1735.19,3.4)">
                    <path d="M2,12l11.988,0" style="fill:none;fill-rule:nonzero;stroke:black;stroke-width:2px;"/>
                </g>
            </g>
        </g>
    </g>
</svg>
