<?xml version="1.0" encoding="UTF-8" standalone="no"?>
<!DOCTYPE svg PUBLIC "-//W3C//DTD SVG 1.1//EN" "http://www.w3.org/Graphics/SVG/1.1/DTD/svg11.dtd">
<svg width="100%" height="100%" viewBox="0 0 691 717" version="1.1" xmlns="http://www.w3.org/2000/svg" xmlns:xlink="http://www.w3.org/1999/xlink" xml:space="preserve" xmlns:serif="http://www.serif.com/" style="fill-rule:evenodd;clip-rule:evenodd;stroke-linejoin:round;stroke-miterlimit:2;">
    <g transform="matrix(0.856962,-0.797023,0.742288,0.793226,-395.088,435.967)">
        <g id="Artboard1">
            <g>
                <rect x="168" y="99" width="691" height="772" style="fill:none;"/>
                <g transform="matrix(1,0,0,1.07671,0,-21.5914)">
                    <path d="M404,403L376,442L360,472L355,503C399.055,620.473 474.205,678.35 610,620L648,434C568.409,390.591 487.039,380.957 404,403Z" style="fill:rgb(229,221,173);"/>
                </g>
                <g transform="matrix(1,0,0,1.07671,0,-21.5914)">
                    <path d="M542,349L572.15,332L608,313L620,313L648,274L643,253L670,240L683.43,213L683.43,182L678,165L655,149L640,142L607,138L590,147L572.15,167L563,187L531,194L519,213L501.5,207L485,189L466,184L455,175L431,146L383,144L355,158L347,183L344,216L355,238L374,249L382,264L390.225,295L398,309L421,324L442.828,329L469,336L475,344L491,353L542,349Z" style="fill:rgb(131,178,102);"/>
                </g>
                <g transform="matrix(1,0,0,1.07671,0,-21.5914)">
                    <path d="M509.3,780.25C509,778.6 506.3,771.45 504.8,768.25C500.9,759.95 499.35,757.15 494.6,750.15C488.45,740.95 483,734.5 474.4,726.25C468.25,720.4 458.65,712.75 454.25,710.25C452.9,709.45 450.3,707.75 448.5,706.45C446.7,705.15 442.45,702.55 439,700.7C431.35,696.55 422.6,691.05 417.25,687.05C415.05,685.35 413.05,684 412.85,684C411.9,684 405.05,678.35 395.8,670.05C389.9,664.7 379.55,653.35 376.15,648.5C375.4,647.35 373.7,645.1 372.4,643.4C370.6,641.1 370,639.95 370,638.65L370,636.9L372.4,637.2C379.2,638.1 382.85,638.05 388.5,637.1C391.65,636.55 396.75,635.7 399.75,635.25C408.6,633.95 410.65,633.45 412.35,632.3C414.4,630.9 415.85,629.05 416.3,627.3C416.7,625.7 415.05,623.65 411.7,621.7C409.7,620.5 409.6,620.5 405.45,621.2C403.15,621.6 398.5,622.2 395.1,622.45C383.15,623.5 375.95,624.95 372.75,626.9C370.45,628.35 369,630.25 369,631.95C369,632.8 368.7,633 367.3,633C365.25,633 365.1,632.7 357.25,617.25C346.8,596.65 341.25,573.95 340.2,547.35L339.85,538.5L346.35,538.5C349.95,538.5 357.55,538.25 363.3,537.95C372,537.55 373.95,537.3 375,536.55C377.5,534.75 377.35,528.8 374.75,526.2L373.55,525L357.65,525C348.9,525 341.45,524.8 341.05,524.55C340.5,524.2 340.4,523.25 340.7,520.2C341.35,512.25 342.6,503.6 343.8,498.55C345.75,490.2 350.4,476.8 353.85,469.55C357.45,461.95 366.7,445.45 371,439C375.1,432.75 385.75,419.15 389,415.95C392.35,412.65 401.95,405.1 405.65,402.9C407.05,402.05 411.05,399.5 414.5,397.25C429.5,387.45 444.45,380.35 459.75,375.7C463.05,374.7 468.5,373 471.85,371.95C475.2,370.9 479.35,369.9 481.1,369.75C482.85,369.55 486.05,369 488.25,368.45C494.35,367.05 504.95,366.45 514,367.05C531.65,368.2 542.4,369.45 550.25,371.3C556.1,372.65 566.35,375.95 573.75,378.8C580.05,381.25 593.85,387.75 594.5,388.55C594.65,388.7 596.15,389.6 597.8,390.55C599.5,391.5 601.95,393.05 603.3,393.95C604.65,394.9 607.25,396.7 609.05,397.95C620.4,405.75 630.65,414.55 638.05,422.85C641.2,426.4 644.15,429.7 644.65,430.25C645.55,431.25 647.65,433.95 651.45,439.15C657.4,447.25 668.1,466.95 672.15,477.25C675.6,486 679.05,497.9 680.3,505.5C681.8,514.55 682,516.3 682.75,525.25C684.95,551.8 681.75,579.95 674,601.5C671.45,608.65 665.45,622.05 662.4,627.5C661.55,629 660.05,631.85 659,633.75C656.95,637.6 653.15,643.25 650.8,646C649.95,647 648.45,648.8 647.5,650C643.55,654.95 639.6,659.25 629.95,669C619.95,679.05 614.6,683.6 608.05,687.55C606.25,688.6 604.4,689.75 604,690C601.4,691.7 594.05,696.05 590.25,698.15C586.1,700.45 577.2,706.15 573,709.15C572.05,709.85 569,711.85 566.25,713.65C556.3,720.15 549.5,726.2 539.35,737.55C529.65,748.35 524.05,757 519.45,768.4C518.35,771.1 516.7,774.5 515.75,776.1C514.8,777.65 513.85,779.6 513.7,780.45C513.4,781.85 513.2,782 511.5,782C509.75,782 509.6,781.9 509.3,780.25ZM503.5,693.5C505.55,693.2 509.4,692.75 512,692.45C514.6,692.15 517.05,691.65 517.4,691.4C518.15,690.75 518.2,684.65 517.5,682.75C517.2,681.95 516.25,681.15 515.15,680.65C513.45,679.95 511.8,679.9 500,680.35C485.95,680.9 484.35,681.2 482.15,683.6C479.7,686.2 479.8,687.85 482.45,690.55C485.25,693.4 487.2,694 493.75,694C497.05,693.95 501.45,693.75 503.5,693.5ZM453,670.7C459.75,670.35 461.15,669.9 463.2,667.5C464.75,665.6 464.85,663.65 463.55,661.1C461.85,657.75 461.6,657.7 447.35,658.7C431.3,659.85 431.5,659.8 430.35,662.15C429.6,663.65 429.5,664.3 429.95,665.65C431.35,669.75 435.95,671.65 443.5,671.2C445.3,671.1 449.55,670.9 453,670.7ZM525.35,644.7C535.65,643.55 549,640.1 560.55,635.5C569.05,632.15 581.45,624.5 589.5,617.7C597.75,610.75 607.9,599.5 612.2,592.6C613,591.3 614.4,589.05 615.35,587.65C619.25,581.65 625.75,566.25 627.95,558C632.5,540.7 633.8,526.05 632.3,510.2C630.9,495.7 629.6,490.3 623.8,475.25C619.15,463.05 612.15,451.5 602.75,440.65C596.65,433.5 595.05,432.05 584.25,423.6C575.55,416.8 558.95,408.55 544.85,404.05C533.1,400.3 529.65,399.75 517.5,399.8C501.05,399.8 488.15,402.05 471.5,407.9C466.8,409.55 453.5,416.35 448.75,419.5C442.05,423.95 440.85,424.95 433.55,432.15C413.2,452.25 407.7,460 400.1,479C395.65,490.25 394.7,493.7 392.95,505.5C391.6,514.2 391.35,530.95 392.45,538.25C393.2,543.45 396.05,555.8 397.55,560.5C399.6,566.7 404.7,577.7 409.4,586C412.7,591.8 421.35,602.9 426.9,608.4C433.25,614.75 445.35,623.85 451.7,627.05C453.1,627.75 456.5,629.5 459.25,630.9C474.2,638.5 477.35,639.75 486.75,642C500.75,645.35 512.2,646.15 525.35,644.7Z" style="fill:rgb(175,29,62);fill-rule:nonzero;"/>
                </g>
                <g transform="matrix(1,0,0,1.07671,0,-21.5914)">
                    <path d="M507.95,809.25C506,808.2 503.8,804.6 502.55,800.4C497.05,782.2 491.1,768.25 484.6,758.25C478.55,748.95 469.15,738.9 458.5,730.45C455.5,728.05 439.3,717.3 434,714.15C431.65,712.75 427.4,710.25 424.5,708.55C407.95,698.75 386.15,681.4 376.65,670.4C360.45,651.6 348.5,632.9 340.85,614.25C336.55,603.75 331.45,587.05 329.5,577.05C327.2,565.25 326.75,559.25 326.75,539.75C326.8,512 328.05,503 335.15,480.25C339.75,465.65 347.9,449.05 358.05,433.95C370.65,415 389,397.45 412.75,381.65C416.7,379.05 426.2,374 432.6,371.15C435.45,369.9 439.8,368 442.25,366.9C446.6,364.95 453.65,362.4 462.55,359.55C466.1,358.35 470.75,357.4 473.35,357.25C474.7,357.2 474.5,356.35 472.5,353.75C469.8,350.3 467.2,347.95 461.05,343.55C454.55,338.95 448.8,335.7 445.5,334.8C444,334.4 440.3,333.95 437.25,333.8C416,332.6 405.3,327.9 391.4,313.6C381.3,303.25 376.1,294.2 373.55,282.6C372.05,275.75 371.85,273.05 372.5,267C373.25,260.55 373.5,261.1 368.5,259.45C364,258 360.5,255.95 355.4,251.9C335.25,235.9 326.25,210.1 331.7,184C333.25,176.35 335.9,169.5 339.75,163C343.45,156.8 345.6,153.95 350.15,149.4C358.15,141.35 371.8,134.1 384,131.4C388.6,130.4 390.6,130.25 400,130.25C414.6,130.25 419.7,131.35 432.35,137.3C441,141.35 446.3,145.45 453.65,153.75C458.9,159.65 461.95,164.35 464.25,170.1C465.25,172.65 466.3,175 466.55,175.3C466.8,175.6 468.85,176 471.15,176.15C480.2,176.75 489.9,180.35 498,186.05C502.85,189.5 505.8,192.45 508.75,196.95L511.15,200.6L512.2,199.2C514.35,196.15 522.9,187.8 526.5,185.25C533.9,180.05 541.3,177.05 551.2,175.25C558.15,173.95 559.15,173.45 560.05,170.55C560.8,168.15 565.1,160.05 567.6,156.3C570.3,152.3 577.3,145.35 582,142.05C588.85,137.2 597.5,133.5 606.75,131.4C613.2,129.95 629.8,129.55 636.5,130.7C659.65,134.75 681.35,152.95 689,174.75C692,183.3 692.55,186.55 692.85,196.4C693.2,207.15 692.75,210.6 689.9,219.15C687.1,227.75 683.6,234.65 678.55,241.5C674.3,247.3 671.95,249.55 665.85,253.65C661.55,256.6 659,257.9 654.75,259.35L649.25,261.3L649.35,263.05C649.4,263.95 649.55,267.35 649.75,270.5C650.1,275.85 650,276.7 648.55,282.5C645.85,293.7 643.65,298.75 637.8,307.5C631.1,317.6 617.85,327.5 606.55,330.95C602.25,332.25 595.5,333.3 586.65,333.95C579.4,334.55 576.9,335.25 568.9,339.25C562.85,342.25 555.95,347.95 552.15,353.15C550.7,355.1 550.5,355.65 551,356.25C551.35,356.65 552.05,357 552.6,357C554.25,357 567.05,360.85 575.85,364C585.75,367.55 594.25,371.6 601.8,376.25C604.8,378.1 609.05,380.75 611.25,382.1C615.45,384.7 620.5,388.35 629.75,395.45C636.05,400.3 645.3,409.15 652.8,417.55C665.7,432.05 679.4,454.55 686.5,473C688.25,477.5 692.65,493.35 693.95,500C699.25,526.4 698.8,560.25 692.85,586.55C691.75,591.3 687.25,606.15 685.55,610.5C681.55,620.8 675.95,631.7 667.35,645.75C661.05,656.05 647.35,672.5 638.2,680.8C627.4,690.55 612.8,701.2 600.85,708.05C587.4,715.75 578.9,721.05 572.45,725.85C564.2,731.9 552.45,743 546.75,750C538.7,759.95 528.6,777.6 526.2,786C522.65,798.4 520.35,804.65 518.55,806.65C517.6,807.7 516.2,808.9 515.45,809.3C513.65,810.2 509.65,810.15 507.95,809.25ZM512.2,778.95C512.35,778.1 513.3,776.15 514.25,774.6C515.2,773 516.85,769.6 517.95,766.9C522.55,755.5 528.15,746.85 537.85,736.05C548,724.7 554.8,718.65 564.75,712.15C567.5,710.35 570.55,708.35 571.5,707.65C575.7,704.65 584.6,698.95 588.75,696.65C592.55,694.55 599.9,690.2 602.5,688.5C602.9,688.25 604.75,687.1 606.55,686.05C613.1,682.1 618.45,677.55 628.45,667.5C638.1,657.75 642.05,653.45 646,648.5C646.95,647.3 648.45,645.5 649.3,644.5C651.65,641.75 655.45,636.1 657.5,632.25C658.55,630.35 660.05,627.5 660.9,626C663.95,620.55 669.95,607.15 672.5,600C678.2,584.15 682,561.3 682,542.75C682,535.8 680.95,520.6 680.05,514.75C677.8,500.2 675.25,490.4 670.65,478.75C666.6,468.45 655.9,448.75 649.95,440.65C646.15,435.45 644.05,432.75 643.15,431.75C642.65,431.2 639.7,427.9 636.55,424.35C629.15,416.05 618.9,407.25 607.55,399.45C605.75,398.2 603.15,396.4 601.8,395.45C600.45,394.55 598,393 596.3,392.05C594.65,391.1 593.15,390.2 593,390.05C592.35,389.25 578.55,382.75 572.25,380.3C559.7,375.45 549.25,372.5 539.9,371.25C536.8,370.8 533.15,370.25 531.75,370C528.4,369.35 510.45,368.35 504.25,368.45C498.7,368.5 491.65,369.3 489.75,370C489.05,370.25 486.4,370.75 483.9,371.05C481.4,371.35 476.6,372.45 473.3,373.5C469.95,374.55 464.55,376.2 461.25,377.2C445.95,381.85 431,388.95 416,398.75C412.55,401 408.55,403.55 407.15,404.4C403.45,406.6 393.85,414.15 390.5,417.45C387.25,420.65 376.6,434.25 372.5,440.5C368.2,446.95 358.95,463.45 355.35,471.05C351.9,478.3 347.25,491.7 345.3,500.05C344.25,504.5 343.5,509.6 342.25,520.55C342.05,522.4 342.15,522.95 342.8,523.2C343.2,523.35 350.65,523.5 359.3,523.5L375.05,523.5L376.25,524.7C377.9,526.35 378.65,529.6 378.3,533.5C377.9,537.95 377.15,538.65 371.85,539.05C369.6,539.25 361.8,539.6 354.55,539.8L341.4,540.15L341.75,547.2C342.95,573.1 348.55,595.6 358.75,615.75C361.55,621.25 364.6,627.1 365.5,628.75C367.2,631.7 367.2,631.7 367.5,630.25C368.65,624.85 374.95,622.6 393.6,620.95C397,620.65 401.65,620.1 404,619.7C406.35,619.3 408.95,619 409.8,619C412.75,619 418.5,623.75 418.5,626.25C418.5,627.65 417.35,630.4 416.15,631.8C413.75,634.6 412.2,635.1 401.25,636.75C398.25,637.2 393.3,638 390.25,638.55C384.35,639.6 375.4,639.8 373.2,639C372.45,638.7 371.8,638.55 371.65,638.65C371.55,638.75 372.55,640.2 373.85,641.9C375.2,643.55 376.9,645.85 377.65,647C381.05,651.85 391.4,663.2 397.3,668.55C406.55,676.85 413.4,682.5 414.35,682.5C414.55,682.5 416.55,683.85 418.75,685.55C424.1,689.55 432.85,695.05 440.5,699.2C443.95,701.05 448.2,703.65 450,704.95C451.8,706.25 454.4,707.95 455.75,708.75C460.15,711.25 469.75,718.9 475.9,724.75C484.5,733 489.95,739.45 496.1,748.65C500.85,755.65 502.4,758.45 506.3,766.75C507.8,769.95 510.5,777.1 510.8,778.75C511.2,780.9 511.8,781 512.2,778.95ZM491.05,345.4C490.25,343.95 487.9,338.8 485.85,334C481.85,324.6 473.1,306.8 470.05,301.8C469,300.1 466.3,295.2 463.95,290.9C461.65,286.55 459.4,282.55 459,282C458.35,281.2 457.1,280.9 451.2,280.3C447.2,279.85 440.7,278.7 435.95,277.55C431.45,276.5 424.15,275.1 419.75,274.5C415.35,273.9 410.65,273.1 409.35,272.65C406.75,271.85 403.75,269.55 403.25,268C402.9,266.8 404.95,262.7 406.75,261C407.95,259.9 408.45,259.75 411.65,259.85C413.65,259.9 418.65,260.4 422.75,260.95C433.45,262.4 445.55,263.6 445.95,263.25C446.1,263.05 445.9,262.65 445.5,262.35C444.25,261.35 439,255.1 433.25,247.75C430.2,243.9 425.25,238.15 422.15,234.95L416.55,229.2L410.65,229.15C405.2,229.15 401.15,228.7 389.1,226.7C379,225.05 376.8,223.15 378,217.15C378.45,215.15 379.05,213.95 380.45,212.5C382.85,209.95 383.7,209.95 392.95,212.25C396.8,213.2 400.8,214 401.85,213.95L403.75,213.95L400.25,210.85C398.35,209.15 393.85,204.95 390.25,201.5C386.7,198.05 382.45,194.15 380.85,192.8C377.25,189.75 373.7,185.1 373.3,182.8C373.05,181.5 373.25,180.5 373.95,179.05C375.55,175.95 380.95,172 383.6,172C385.85,172 412.75,200.1 417.35,207.3C417.9,208.15 417.95,208.15 417.95,206.95C418,206.2 418.35,204.7 418.75,203.5C419.15,202.35 419.75,199.9 420.05,198.1C421.35,189.9 423.2,181.6 424,179.95C425.1,177.8 428.5,174.65 430.2,174.2C430.9,174.05 432.2,174.3 433.35,174.8C435.7,175.95 439.5,179.75 439.5,181C439.5,181.55 438.95,183.7 438.25,185.85C437.6,188 436.5,192.9 435.8,196.8C434.75,202.5 432.4,211.65 430.3,218.4C430.05,219.15 430.4,219.9 431.6,221.1C436.05,225.65 443.35,234.55 446.5,239.25C448.45,242.15 450.15,244.5 450.3,244.5C450.85,244.5 453.8,237.1 457.05,227.3C460.95,215.7 462.7,211.8 465.1,209.55C466.5,208.2 467.15,208 469.45,208C472,208 472.25,208.1 474.55,210.45C477.45,213.35 477.65,214.8 475.7,219C473,224.85 470.75,230.6 467.5,240.25C465.6,245.75 463.6,251.5 463.05,253C461.25,257.75 461.35,258.15 467.8,267.95C481.4,288.65 484.15,292.9 485.35,295.25C486.05,296.65 487.95,299.95 489.6,302.7C493.6,309.4 496.4,315.1 499.25,322.4C500.6,325.75 501.9,328.5 502.15,328.5C502.55,328.5 502.5,319.8 501.7,261.3C501.4,240.5 501.85,227.35 503.05,220.85C503.6,218 503.55,217.5 502.6,215.35C499.6,208.6 490.35,199.75 481.8,195.4C480,194.5 474.8,192.9 468.8,191.4C454.05,187.8 454.2,187.85 453.35,185.35C452.9,184.2 452,181.55 451.25,179.45C447.9,169.75 440.05,160.65 429.9,154.7C421.75,149.9 413.85,147.4 403.8,146.45C393.3,145.45 384.9,146.9 375.15,151.5C361.45,157.95 353.35,167.5 348.05,183.55C345.95,189.85 345.3,194.25 345.7,200C346.05,205.75 348.9,217.3 351,221.7C353.15,226.15 358.35,232.8 363.45,237.55C368.6,242.4 373.15,245.05 381,247.7C388.55,250.25 389.65,251.9 388.55,259.3C387.85,263.95 387.85,272.75 388.5,276.9C390,285.95 394.05,293.4 402,301.7C408.65,308.65 414.85,312.45 422.85,314.45C427.8,315.7 429.5,315.9 439.25,316.5C448.65,317.05 451.7,317.9 457.2,321.5C462.75,325.15 469.85,330.45 474.8,334.75C484.45,343.1 487.4,345.5 489.55,346.7C490.75,347.4 491.9,348 492.15,348C492.35,348 491.85,346.8 491.05,345.4ZM539.05,342.2C541.9,339.85 546.05,336.85 548.25,335.5C550.45,334.15 555.4,330.7 559.2,327.8C563.3,324.7 568.25,321.45 571.2,320L576.25,317.45L585.75,316.7C596.3,315.9 600.9,314.9 607.55,312.05C614.1,309.2 620.55,303.9 625.5,297.3C628.5,293.25 630.3,289.85 632.55,283.75C634.2,279.25 634.2,279.25 634.2,270.25C634.2,263.3 634,260.4 633.3,257.5C631.65,250.75 631.65,250.2 633.55,249.05C634.45,248.5 636.1,247.9 637.2,247.75C645.75,246.4 655.6,241.25 661.85,234.9C666.05,230.65 666.55,230 669.6,225C673.6,218.5 675.45,212.7 676.5,203.5C677,199.45 677,197.2 676.55,193.85C675.35,184.9 671.8,175.9 667.35,170.4C666.2,168.95 664.5,166.75 663.65,165.5C660.6,161.05 654.6,155.9 649.15,153.1C636.15,146.4 626.2,144.85 612.25,147.25C606.5,148.25 603.9,149.1 597.75,152C585.65,157.65 576.75,168.55 573.15,182.05C571.8,187 571.65,187.3 570,188.1C569.05,188.55 565.2,189.3 561.5,189.75C548.5,191.4 541.95,193.75 534.85,199.5C529.35,203.9 525.05,209.6 521.55,217.25C518.2,224.45 518.2,224.15 518.5,255.75C518.65,271.45 518.75,297 518.75,312.6C518.75,328.15 518.8,340.85 518.9,340.8C518.95,340.7 519.25,339.35 519.55,337.7C519.85,336.1 521,332.2 522.15,329.05C524.7,321.95 533.85,303.25 538,296.65C539.7,293.95 542.8,288.95 544.9,285.5C547,282.05 549.7,277.8 550.95,276C552.2,274.2 555.5,269.4 558.35,265.35C561.2,261.3 563.5,257.85 563.5,257.7C563.5,257.6 562.4,255.15 561.05,252.35C559.7,249.55 558.1,245.5 557.5,243.4C556.95,241.25 554.85,234.7 552.95,228.9C551,223.05 549.3,216.95 549.15,215.35C548.85,212.55 548.95,212.35 550.5,210.75C552.65,208.5 555.2,207.3 556.9,207.75C557.65,207.9 559.1,208.65 560.2,209.3C562.5,210.85 564.65,215.2 566.95,223C568.9,229.65 573.25,240.9 574.55,242.5C575.4,243.6 575.55,243.65 576,242.9C576.7,241.8 584.55,231.95 587.6,228.4C588.95,226.85 591.05,224.3 592.25,222.7L594.45,219.9L592.95,216.9C591.45,213.9 590,208 589,200.75C588.75,198.55 588.15,194.3 587.75,191.35C586.9,185.1 586.8,181.8 587.5,180.5C587.75,180 589.1,178.8 590.45,177.8C593.5,175.55 596.3,175.35 598.8,177.25C600.55,178.6 602,182.05 602,184.95C602,186.8 602.7,191.2 604.45,200.7C605.2,204.65 605.75,206.45 606.5,207.2C607.55,208.25 607.55,208.25 608.1,207.25C609.05,205.6 615.85,198.1 623.7,189.95C627.85,185.7 632.8,180.45 634.7,178.3C638.5,174 640.55,172.5 642.55,172.5C644.6,172.5 647.65,175.05 649.25,178.1C651.55,182.55 651.2,183.35 642.85,191.95C633.8,201.25 623.8,211.95 623.55,212.65C623.45,212.95 624.7,213.05 627.3,212.8C635.2,212.15 642.05,212.3 642.9,213.15C644,214.25 643.85,216.55 642.55,218.65C641.05,221.15 637.5,222.8 630.65,224.3C627.45,224.95 624.7,225.6 624.55,225.7C624.4,225.8 621.15,226.2 617.4,226.5C612.65,226.95 610.1,227.4 609.1,228C608.3,228.5 604.65,232.45 601,236.8C597.3,241.2 592.65,246.55 590.6,248.75C588.55,250.95 585.7,254.4 584.15,256.4C582.65,258.4 580.6,260.8 579.65,261.75C578.65,262.7 578,263.65 578.2,263.85C578.4,264.05 580.15,263.9 582.15,263.55C584.15,263.2 590.95,262.2 597.25,261.25C603.6,260.3 610.45,259.3 612.55,258.95C617.75,258.15 618.65,258.45 620.2,261.6C621.95,265.05 621.85,266.55 619.9,268.8C617.7,271.3 615.45,272.2 607.25,273.75C596.4,275.8 585.55,278 582.45,278.8C577.25,280.1 571.75,281 568.95,281C566.55,281 566,281.2 564.9,282.4C563.65,283.75 556.95,294.9 553,302.25C551.85,304.45 548.65,310.4 545.95,315.45C541.75,323.25 538.05,331.65 536.75,336.5C536.55,337.2 535.6,339.6 534.7,341.9C533.75,344.15 533,346.1 533,346.25C533,347 534.4,346.1 539.05,342.2Z" style="fill:rgb(7,34,45);fill-rule:nonzero;"/>
                    <path d="M484.25,694.45C481.8,693.2 479.1,690.4 478.7,688.7C477.9,685.5 480.05,681.65 483.45,680.2C485.35,679.4 498.05,678.55 509.15,678.5C515.9,678.5 518.2,679.15 519.05,681.35C519.9,683.55 519.85,691.9 518.95,692.7C518.55,693.1 516.15,693.65 513.5,693.95C510.9,694.25 507.05,694.7 505,695C502.95,695.25 497.85,695.45 493.75,695.5C487.05,695.5 486,695.4 484.25,694.45Z" style="fill:rgb(7,34,45);fill-rule:nonzero;"/>
                    <path d="M436.25,672.5C432.75,671.95 431.35,671.3 429.85,669.55C427.7,667 427.4,662.45 429.2,659.75C430.1,658.4 430.75,658.3 444.95,657.25C458.45,656.25 461.95,656.3 463.3,657.4C466.1,659.6 467.15,665.75 465.2,668.35C462.9,671.45 462.1,671.7 452.85,672.3C443.1,673 439.8,673.05 436.25,672.5Z" style="fill:rgb(7,34,45);fill-rule:nonzero;"/>
                    <path d="M502.75,646.45C495.2,645.6 491,644.85 485.25,643.5C475.85,641.25 472.7,640 457.75,632.4C455,631 451.6,629.25 450.2,628.55C443.85,625.35 431.75,616.25 425.4,609.9C419.85,604.4 411.2,593.3 407.9,587.5C403.2,579.2 398.1,568.2 396.05,562C394.55,557.3 391.7,545 390.9,539.75C389.8,532.25 390.1,512.8 391.4,504C393.2,492.15 394.15,488.75 398.6,477.5C406.2,458.5 411.7,450.75 432.05,430.65C441.75,421.05 447.15,417.25 459.5,411.15C469.1,406.45 473.9,404.7 484.5,402.05C495.75,399.2 503.9,398.3 517.5,398.25C528.5,398.25 530.3,398.4 534.9,399.4C549.6,402.7 569,410.75 580,418.15C582.9,420.15 585.5,421.9 585.75,422.1C596.55,430.55 598.15,432 604.25,439.15C613.65,450 620.65,461.55 625.3,473.75C631.1,488.8 632.4,494.2 633.8,508.7C635.8,529.75 632.7,553.65 625.75,570.5C622.6,578.15 618.8,586.15 616.85,589.15C615.9,590.55 614.5,592.8 613.7,594.1C607.45,604.2 593.4,618.35 582.25,625.85C568.8,634.85 558.25,639.35 539.75,644C529.6,646.55 512.9,647.65 502.75,646.45ZM530.3,629.8C546.25,626.55 554.6,623.3 567.65,615.4C581.8,606.85 591.75,597.3 600.45,584C605.95,575.6 609.4,568.4 612.7,558.4C620.6,534.55 620.3,508.25 611.85,484.45C608.95,476.4 606.9,471.9 603.4,466.25C598.8,458.85 594,452.75 587.7,446.4C575.35,433.9 560.15,424.6 543,419.05C533.35,415.95 518.95,414.3 507.75,415.05C481.75,416.7 463.821,423.22 443,439.6C429.851,449.945 418.401,467.424 415.4,475C409.504,489.888 407.8,495.05 406.45,513C405.55,525 406.75,539.9 409.5,550.65C410.95,556.15 416.15,569.05 418.85,573.75C424.6,583.75 428.65,589.2 435.75,596.4C443.45,604.3 449.15,608.75 459.5,615C471.25,622.05 489.05,628.2 503.5,630.25C509.9,631.15 525,630.9 530.3,629.8Z" style="fill:rgb(7,34,45);fill-rule:nonzero;"/>
                    <g transform="matrix(0.763886,0.64535,-0.645352,0.763886,455.495,-204.752)">
                        <path d="M463.75,593C457.2,592 453.05,590.05 449.65,586.3C443.55,579.5 441.2,568.65 444,560.25C446.2,553.55 448.55,549.9 452.85,546.5C458.65,541.95 468.25,539.1 473.25,540.5C474.45,540.85 475.7,541 476.1,540.9C476.65,540.7 476.75,534.35 476.75,506.15C476.75,473.85 476.8,471.55 477.65,470.65C478.5,469.7 479.75,469.25 488,467C490.05,466.45 492.9,465.65 494.25,465.25C497.3,464.4 510.65,460.7 520.75,457.95C524.9,456.8 529.7,455.45 531.5,454.95C545.7,450.95 563.1,447 566.75,447C571.4,447 571.2,446.3 571.55,463.35C571.75,471.55 571.95,494.9 572.05,515.25C572.53,527.175 572.176,532.9 572.15,545.25C572.142,548.976 571.449,554.397 570.65,556.7C568.1,564.05 563.55,569.45 557.25,572.6C553.1,574.75 549.95,575.5 545.2,575.5C540.15,575.5 535.55,574.15 531.25,571.45C523.45,566.55 519.5,559.4 519.5,550.3C519.5,542.5 521.75,537.15 527.45,531.5C534.9,524.1 543.25,521.4 550.75,524C552.4,524.55 553.9,524.95 554.15,524.85C554.6,524.7 554.7,481.55 554.3,481.1C554.1,480.95 548.65,482.65 537.75,486.25C533.35,487.7 526.25,489.75 522,490.75C517.75,491.75 510.75,493.6 506.45,494.75C502.15,495.95 497.6,497.1 496.3,497.25L494,497.6L494,532.95C494,571.65 493.95,572.35 491.05,578.2C489,582.4 483.8,587.95 480.15,589.85C475.05,592.55 468.85,593.75 463.75,593Z" style="fill:rgb(7,34,45);fill-rule:nonzero;"/>
                    </g>
                </g>
            </g>
        </g>
    </g>
</svg>
